<svg width="45" height="45" viewBox="0 0 45 45" fill="none" xmlns="http://www.w3.org/2000/svg">
<path fill-rule="evenodd" clip-rule="evenodd" d="M17.8125 7.5C17.8125 6.75408 18.1088 6.03871 18.6363 5.51126C19.1637 4.98382 19.8791 4.6875 20.625 4.6875H26.25C26.9959 4.6875 27.7113 4.98382 28.2387 5.51126C28.7662 6.03871 29.0625 6.75408 29.0625 7.5C29.0625 8.24592 28.7662 8.96129 28.2387 9.48874C27.7113 10.0162 26.9959 10.3125 26.25 10.3125H20.625C19.8791 10.3125 19.1637 10.0162 18.6363 9.48874C18.1088 8.96129 17.8125 8.24592 17.8125 7.5ZM17.8125 15C17.8125 14.2541 18.1088 13.5387 18.6363 13.0113C19.1637 12.4838 19.8791 12.1875 20.625 12.1875H26.25C26.9959 12.1875 27.7113 12.4838 28.2387 13.0113C28.7662 13.5387 29.0625 14.2541 29.0625 15C29.0625 15.7459 28.7662 16.4613 28.2387 16.9887C27.7113 17.5162 26.9959 17.8125 26.25 17.8125H20.625C19.8791 17.8125 19.1637 17.5162 18.6363 16.9887C18.1088 16.4613 17.8125 15.7459 17.8125 15ZM30.9375 15C30.9375 14.2541 31.2338 13.5387 31.7613 13.0113C32.2887 12.4838 33.0041 12.1875 33.75 12.1875H39.375C40.1209 12.1875 40.8363 12.4838 41.3637 13.0113C41.8912 13.5387 42.1875 14.2541 42.1875 15C42.1875 15.7459 41.8912 16.4613 41.3637 16.9887C40.8363 17.5162 40.1209 17.8125 39.375 17.8125H33.75C33.0041 17.8125 32.2887 17.5162 31.7613 16.9887C31.2338 16.4613 30.9375 15.7459 30.9375 15ZM4.6875 22.5C4.6875 21.7541 4.98382 21.0387 5.51126 20.5113C6.03871 19.9838 6.75408 19.6875 7.5 19.6875H13.125C13.8709 19.6875 14.5863 19.9838 15.1137 20.5113C15.6412 21.0387 15.9375 21.7541 15.9375 22.5C15.9375 23.2459 15.6412 23.9613 15.1137 24.4887C14.5863 25.0162 13.8709 25.3125 13.125 25.3125H7.5C6.75408 25.3125 6.03871 25.0162 5.51126 24.4887C4.98382 23.9613 4.6875 23.2459 4.6875 22.5ZM17.8125 22.5C17.8125 21.7541 18.1088 21.0387 18.6363 20.5113C19.1637 19.9838 19.8791 19.6875 20.625 19.6875H26.25C26.9959 19.6875 27.7113 19.9838 28.2387 20.5113C28.7662 21.0387 29.0625 21.7541 29.0625 22.5C29.0625 23.2459 28.7662 23.9613 28.2387 24.4887C27.7113 25.0162 26.9959 25.3125 26.25 25.3125H20.625C19.8791 25.3125 19.1637 25.0162 18.6363 24.4887C18.1088 23.9613 17.8125 23.2459 17.8125 22.5ZM30.9375 22.5C30.9375 21.7541 31.2338 21.0387 31.7613 20.5113C32.2887 19.9838 33.0041 19.6875 33.75 19.6875H39.375C40.1209 19.6875 40.8363 19.9838 41.3637 20.5113C41.8912 21.0387 42.1875 21.7541 42.1875 22.5C42.1875 23.2459 41.8912 23.9613 41.3637 24.4887C40.8363 25.0162 40.1209 25.3125 39.375 25.3125H33.75C33.0041 25.3125 32.2887 25.0162 31.7613 24.4887C31.2338 23.9613 30.9375 23.2459 30.9375 22.5ZM4.6875 30C4.6875 29.2541 4.98382 28.5387 5.51126 28.0113C6.03871 27.4838 6.75408 27.1875 7.5 27.1875H13.125C13.8709 27.1875 14.5863 27.4838 15.1137 28.0113C15.6412 28.5387 15.9375 29.2541 15.9375 30C15.9375 30.7459 15.6412 31.4613 15.1137 31.9887C14.5863 32.5162 13.8709 32.8125 13.125 32.8125H7.5C6.75408 32.8125 6.03871 32.5162 5.51126 31.9887C4.98382 31.4613 4.6875 30.7459 4.6875 30ZM17.8125 30C17.8125 29.2541 18.1088 28.5387 18.6363 28.0113C19.1637 27.4838 19.8791 27.1875 20.625 27.1875H26.25C26.9959 27.1875 27.7113 27.4838 28.2387 28.0113C28.7662 28.5387 29.0625 29.2541 29.0625 30C29.0625 30.7459 28.7662 31.4613 28.2387 31.9887C27.7113 32.5162 26.9959 32.8125 26.25 32.8125H20.625C19.8791 32.8125 19.1637 32.5162 18.6363 31.9887C18.1088 31.4613 17.8125 30.7459 17.8125 30ZM30.9375 30C30.9375 29.2541 31.2338 28.5387 31.7613 28.0113C32.2887 27.4838 33.0041 27.1875 33.75 27.1875H39.375C40.1209 27.1875 40.8363 27.4838 41.3637 28.0113C41.8912 28.5387 42.1875 29.2541 42.1875 30C42.1875 30.7459 41.8912 31.4613 41.3637 31.9887C40.8363 32.5162 40.1209 32.8125 39.375 32.8125H33.75C33.0041 32.8125 32.2887 32.5162 31.7613 31.9887C31.2338 31.4613 30.9375 30.7459 30.9375 30ZM4.6875 37.5C4.6875 36.7541 4.98382 36.0387 5.51126 35.5113C6.03871 34.9838 6.75408 34.6875 7.5 34.6875H13.125C13.8709 34.6875 14.5863 34.9838 15.1137 35.5113C15.6412 36.0387 15.9375 36.7541 15.9375 37.5C15.9375 38.2459 15.6412 38.9613 15.1137 39.4887C14.5863 40.0162 13.8709 40.3125 13.125 40.3125H7.5C6.75408 40.3125 6.03871 40.0162 5.51126 39.4887C4.98382 38.9613 4.6875 38.2459 4.6875 37.5ZM17.8125 37.5C17.8125 36.7541 18.1088 36.0387 18.6363 35.5113C19.1637 34.9838 19.8791 34.6875 20.625 34.6875H26.25C26.9959 34.6875 27.7113 34.9838 28.2387 35.5113C28.7662 36.0387 29.0625 36.7541 29.0625 37.5C29.0625 38.2459 28.7662 38.9613 28.2387 39.4887C27.7113 40.0162 26.9959 40.3125 26.25 40.3125H20.625C19.8791 40.3125 19.1637 40.0162 18.6363 39.4887C18.1088 38.9613 17.8125 38.2459 17.8125 37.5ZM30.9375 37.5C30.9375 36.7541 31.2338 36.0387 31.7613 35.5113C32.2887 34.9838 33.0041 34.6875 33.75 34.6875H39.375C40.1209 34.6875 40.8363 34.9838 41.3637 35.5113C41.8912 36.0387 42.1875 36.7541 42.1875 37.5C42.1875 38.2459 41.8912 38.9613 41.3637 39.4887C40.8363 40.0162 40.1209 40.3125 39.375 40.3125H33.75C33.0041 40.3125 32.2887 40.0162 31.7613 39.4887C31.2338 38.9613 30.9375 38.2459 30.9375 37.5Z" fill="#15B2CE"/>
</svg>
